<svg width="1510" height="1028" viewBox="0 0 1510 1028" fill="none" xmlns="http://www.w3.org/2000/svg">
<path d="M596 90.9062L696.588 23.3325L743.011 26.8775L832 304.289L723.67 400.333L596 90.9062Z" fill="#FF93C8"/>
<path d="M1393 250.833L1180.5 342.333L1104 559.833L1162 845.833L1510 1027.33V387.333L1393 250.833Z" fill="#00672E"/>
<path d="M20.3829 566.595L287.124 20.6046L645.796 0L722 293.6L461.425 663.346L225.601 873.487L-4 873.195L-3.94343 693.928L20.3829 566.595Z" fill="#FFE800"/>
<path d="M215 547.833L194.5 729.333L354.5 897.333L777.5 927.333L916 727.833L712.5 509.333L215 547.833Z" fill="#E31C24"/>
<path d="M490.836 687.333L308 372.715L392.721 147.333L631.325 207.592L832 495.431L727.189 678.406L490.836 687.333Z" fill="#00672E"/>
<path d="M618 467.881L918.437 728.333H1137.9L1322 368.251L1255.67 69.3325L997.64 76.7178L890.754 102.552L618 467.881Z" fill="#0F2CCE"/>
</svg>
