<?xml version="1.0" standalone="no"?>
<!DOCTYPE svg PUBLIC "-//W3C//DTD SVG 20010904//EN"
 "http://www.w3.org/TR/2001/REC-SVG-20010904/DTD/svg10.dtd">
<svg version="1.0" xmlns="http://www.w3.org/2000/svg"
 width="39.000000pt" height="30.000000pt" viewBox="0 0 39.000000 30.000000"
 preserveAspectRatio="xMidYMid meet">

<g transform="translate(0.000000,30.000000) scale(0.100000,-0.100000)"
fill="#00672E" stroke="none">
<path d="M190 224 c-14 -2 -60 -6 -102 -9 l-76 -7 -7 -51 -7 -51 50 -48 c46
-44 55 -48 100 -48 27 0 76 -3 108 -6 l60 -6 37 56 38 57 -57 59 c-59 62 -63
64 -144 54z m-21 -71 c10 -17 12 -17 25 0 22 29 37 20 18 -12 -16 -28 -15 -31
2 -50 11 -12 16 -24 12 -29 -4 -4 -16 3 -25 15 l-18 22 -21 -22 c-29 -28 -38
-17 -12 15 l20 26 -21 26 c-16 21 -18 26 -5 26 8 0 20 -8 25 -17z"/>
</g>
</svg>
