<svg width="834" height="889" viewBox="0 0 834 889" fill="none" xmlns="http://www.w3.org/2000/svg">
<path d="M536.131 78.1712L624.104 19.0718L664.705 22.1722L742.535 264.795L647.79 348.793L536.131 78.1712Z" fill="#FF93C8"/>
<path d="M731.673 209.791L545.822 289.816L478.916 480.04L529.642 730.173L834 888.912V329.172L731.673 209.791Z" fill="#00672E"/>
<path d="M21.3251 495.54L254.615 18.0207L568.307 0L634.954 256.78L407.057 580.157L200.807 763.945L0 763.689L0.0494782 606.904L21.3251 495.54Z" fill="#FFE800"/>
<path d="M239.458 472.97L480.916 682.348H657.3L805.256 392.877L751.947 152.575L544.571 158.512L458.668 179.28L239.458 472.97Z" fill="#0F2CCE"/>
<path d="M191.536 479.129L173.606 637.867L313.541 784.799L683.494 811.037L804.625 636.555L626.645 445.457L191.536 479.129Z" fill="#E31C24"/>
<path d="M181.098 586.711L21.1909 311.549L95.2875 114.431L303.969 167.134L479.477 418.875L387.81 578.904L181.098 586.711Z" fill="#00672E"/>
</svg>
