<?xml version="1.0" standalone="no"?>
<!DOCTYPE svg PUBLIC "-//W3C//DTD SVG 20010904//EN"
 "http://www.w3.org/TR/2001/REC-SVG-20010904/DTD/svg10.dtd">
<svg version="1.0" xmlns="http://www.w3.org/2000/svg"
 width="64.000000pt" height="38.000000pt" viewBox="0 0 64.000000 38.000000"
 preserveAspectRatio="xMidYMid meet">

<g transform="translate(0.000000,38.000000) scale(0.100000,-0.100000)"
fill="#000000" stroke="none">
<path d="M385 375 c-5 -2 -90 -9 -187 -16 l-177 -12 -5 -26 c-3 -14 -8 -51
-11 -82 l-6 -56 73 -76 73 -76 141 -11 c77 -5 161 -10 186 -10 l45 0 58 84
c38 55 55 89 49 98 -4 7 -44 52 -88 101 -68 74 -85 87 -111 86 -16 0 -34 -2
-40 -4z m35 -90 c0 -13 -21 -15 -130 -15 -119 0 -142 4 -123 23 3 4 62 7 130
7 103 0 123 -2 123 -15z m0 -85 c0 -6 -50 -10 -130 -10 -80 0 -130 4 -130 10
0 6 50 10 130 10 80 0 130 -4 130 -10z m0 -85 c0 -13 -21 -15 -130 -15 -109 0
-130 2 -130 15 0 13 21 15 130 15 109 0 130 -2 130 -15z"/>
</g>
</svg>
